<?xml version="1.0" encoding="utf-8"?>

<!DOCTYPE svg PUBLIC "-//W3C//DTD SVG 1.1//EN" "http://www.w3.org/Graphics/SVG/1.1/DTD/svg11.dtd">
<!-- Uploaded to: SVG Repo, www.svgrepo.com, Generator: SVG Repo Mixer Tools -->
<svg height="800px" width="800px" version="1.1" id="_x32_" xmlns="http://www.w3.org/2000/svg" xmlns:xlink="http://www.w3.org/1999/xlink" 
	 viewBox="0 0 512 512"  xml:space="preserve">
<style type="text/css">
	.st0{fill:#000000;}
</style>
<g>
	<path class="st0" d="M501.611,158.859c-7.066-10.98-12.057-23.321-15.203-34.442c-3.152-11.074-4.439-21.104-4.419-26.641
		c-0.007-4.244-0.633-9.1-2.223-14.267c-2.371-7.7-7.066-16.194-15.378-22.734c-8.292-6.561-19.952-10.69-34.495-10.65
		c-3.18,0-6.507,0.189-9.983,0.572c-12.819,1.442-24.196,7.222-34.725,14.739c-15.81,11.337-30.359,26.877-46.081,41.851
		c-15.217,14.55-31.404,28.46-49.699,37.796c-3.031-1.374-6.373-2.182-9.922-2.182h-42.249c-4.486,0-8.629,1.307-12.226,3.436
		l-0.741-0.364c-25.334-12.408-46.533-33.882-66.795-53.673c-10.158-9.876-20.094-19.312-30.656-26.864
		c-10.529-7.517-21.906-13.297-34.725-14.739c-3.483-0.383-6.803-0.572-9.983-0.572c-9.713-0.007-18.1,1.778-25.098,4.964
		C46.46,59.845,39.427,67.753,35.426,75.648c-4.042,7.942-5.396,15.79-5.416,22.128c0.02,5.538-1.266,15.568-4.419,26.641
		c-3.146,11.121-8.137,23.462-15.203,34.442c-6.076,9.491-10.354,19.703-10.387,30.716c-0.067,9.168,3.327,18.538,10.003,26.325
		c6.662,7.854,16.234,14.389,29.026,20.087c33.634,14.954,65.953,22.101,95.377,23.799c-23.684,23.031-44.971,49.41-61.339,71.625
		c-20.101,27.308-32.744,48.237-32.859,48.426l-11.445,18.942l81.676-12.57l37.829,75.667l8.656-21.017c0,0,0.175-0.424,0.532-1.279
		c2.688-6.42,15.406-36.349,33.822-72.993c17.649-35.142,40.632-76.421,64.714-108.896c25.766,34.738,50.252,79.533,68.331,116.13
		c9.41,19.024,17.109,35.823,22.452,47.847c2.674,6.009,4.755,10.825,6.163,14.132c0.708,1.651,1.24,2.923,1.603,3.78
		c0.357,0.855,0.532,1.279,0.532,1.279l8.649,21.017l37.836-75.667l81.676,12.563l-11.445-18.935
		c-0.114-0.188-12.765-21.118-32.859-48.426c-16.368-22.216-37.655-48.594-61.339-71.625c29.424-1.698,61.736-8.844,95.377-23.792
		c12.792-5.705,22.357-12.239,29.026-20.094c6.676-7.787,10.071-17.157,10.003-26.325
		C511.958,178.562,507.688,168.35,501.611,158.859z M486.193,202.536c-3.853,4.594-10.724,9.713-21.63,14.543
		c-36.422,16.187-70.769,22.452-100.92,22.452c-19.461,0-37.17-2.62-52.481-6.871c-3.044-0.836-5.153-1.603-6.244-2.163
		c-0.835-0.424-1.064-0.66-1.118-0.714c-0.014-0.04-0.068-0.061-0.175-0.297v-62.228c3.341,0.249,7.214,0.424,11.768,0.424
		c12.906,0,30.73-1.347,53.693-6.022c27.544-5.624,53.498-13.223,73.505-23.731c8.521-4.506,15.931-9.606,21.973-15.594
		c0.579,2.512,1.192,5.059,1.94,7.72c3.61,12.731,9.249,26.836,17.703,39.999c4.823,7.464,7.14,14.2,7.1,19.521
		C491.245,194.048,490.039,197.895,486.193,202.536z M365.314,412.426c-5.416-12.165-13.082-28.858-22.439-47.779
		c-16.813-33.991-38.941-75-63.252-109.67c6.103-0.041,11.606-2.391,15.836-6.157c3.227,1.644,6.5,2.748,10.165,3.778
		c12.886,3.577,27.12,6.083,42.444,7.107l-0.492,0.572c28.312,24.116,55.148,56.826,74.69,83.4
		c7.767,10.556,14.341,20.067,19.508,27.787l-51.975-8.003L365.314,412.426z M429.893,70.818c7.228,0.007,12.535,1.294,16.537,3.106
		c5.962,2.748,9.39,6.689,11.728,11.162c0.162,0.31,0.263,0.639,0.411,0.956c0.552,5.221-0.465,14.672-6.514,19.575
		c-7.194,5.827-17.851,14.362-33.216,20.458c-15.345,6.156-34.092,11.29-53.875,15.311c-16.146,3.281-29.37,4.782-39.811,5.335
		c16.497-12.522,30.696-26.877,43.805-39.594c9.996-9.74,19.366-18.518,28.251-24.85c8.912-6.372,17.116-10.151,24.99-11.013
		C424.968,70.959,427.528,70.818,429.893,70.818z M233.784,230.847v-63.804c0.007-1.9,1.549-3.442,3.449-3.449h42.249
		c0.977,0.007,1.846,0.418,2.472,1.071c0,10.434,0,31.876,0,54.973c0.007,4.325,0.168,8.057,0.808,11.687
		c0.007,0.055,0.027,0.108,0.04,0.155c-0.317,1.583-1.643,2.809-3.321,2.816h-42.249
		C235.333,234.289,233.791,232.747,233.784,230.847z M146.686,412.426L122.2,363.461l-51.975,8.003
		c5.975-8.926,13.883-20.317,23.26-32.832c19.143-25.584,44.398-55.748,70.937-78.355l-0.492-0.572
		c15.325-1.024,29.558-3.53,42.444-7.107c3.604-1.01,6.824-2.027,9.996-3.61c1.058-0.533,2.109-1.166,3.132-1.866
		c3.442,3.746,8.002,6.419,13.196,7.41c-24.432,34.765-46.688,75.977-63.575,110.115
		C159.768,383.568,152.102,400.261,146.686,412.426z M20.694,189.575c-0.04-5.322,2.277-12.057,7.1-19.521
		c8.454-13.162,14.092-27.268,17.702-39.999c0.741-2.634,1.347-5.154,1.92-7.646c9.599,9.471,22.734,16.686,38.046,22.876
		c17.022,6.81,36.799,12.173,57.452,16.376c22.964,4.675,40.787,6.022,53.694,6.022c5.018,0,9.201-0.216,12.744-0.506
		c0,11.135,0,31.088,0,52.461c0.007,3.719-0.182,6.426-0.485,8.036c-0.216,1.22-0.458,1.772-0.56,1.947
		c-0.174,0.215,0.128,0.067-0.855,0.68c-0.957,0.56-3.186,1.422-6.615,2.358c-15.318,4.25-33.02,6.871-52.481,6.871
		c-30.151,0-64.498-6.265-100.92-22.452c-10.906-4.83-17.777-9.95-21.636-14.543C21.961,197.895,20.755,194.048,20.694,189.575z
		 M89.8,71.263c7.874,0.862,16.079,4.641,24.99,11.013c13.358,9.491,27.672,24.52,43.812,39.979
		c8.71,8.306,18.026,16.726,28.204,24.459c-10.434-0.552-23.644-2.054-39.77-5.328c-26.372-5.342-50.938-12.745-67.98-21.758
		c-8.522-4.479-14.416-10.023-19.117-14.011c-9.053-7.692-6.763-18.295-5.356-21.778c1.455-2.486,3.322-4.83,5.814-6.79
		c4.406-3.415,10.845-6.19,21.71-6.231C84.465,70.818,87.031,70.959,89.8,71.263z"/>
</g>
</svg>