<?xml version="1.0" encoding="iso-8859-1"?>

<!DOCTYPE svg PUBLIC "-//W3C//DTD SVG 1.1//EN" "http://www.w3.org/Graphics/SVG/1.1/DTD/svg11.dtd">
<!-- Uploaded to: SVG Repo, www.svgrepo.com, Generator: SVG Repo Mixer Tools -->
<svg height="800px" width="800px" version="1.1" id="_x36_" xmlns="http://www.w3.org/2000/svg" xmlns:xlink="http://www.w3.org/1999/xlink" 
	 viewBox="0 0 512 512"  xml:space="preserve">
<g>
	<path style="fill:#EA514F;" d="M121.342,376.011c-0.563,1.033-1.665,1.665-2.848,1.619c-1.174-0.053-2.227-0.751-2.711-1.822
		l-24.414-54.336c-0.582-1.283-1.934-2.013-3.319-1.796l-58.832,9.355c-1.164,0.178-2.336-0.309-3.016-1.276
		c-0.688-0.961-0.76-2.23-0.197-3.27L169.165,59.564c0.815-1.5,2.704-2.066,4.204-1.256l89.882,48.579
		c1.5,0.809,2.066,2.691,1.256,4.204L121.342,376.011z"/>
	<path style="fill:#D43736;" d="M263.25,106.886l-89.882-48.579c-1.5-0.81-3.389-0.244-4.204,1.256L64.99,252.557l79.97,79.968
		L264.507,111.09C265.316,109.577,264.75,107.696,263.25,106.886z"/>
	<path style="fill:#D43736;" d="M376.513,376.011c0.552,1.033,1.651,1.665,2.836,1.619c1.178-0.053,2.23-0.751,2.724-1.822
		l24.414-54.336c0.566-1.283,1.927-2.013,3.309-1.796l58.836,9.355c1.165,0.178,2.336-0.309,3.019-1.276
		c0.684-0.961,0.757-2.23,0.191-3.27L328.69,59.564c-0.816-1.5-2.703-2.066-4.21-1.256l-89.882,48.579
		c-1.506,0.809-2.065,2.691-1.256,4.204L376.513,376.011z"/>
	<path style="fill:#EA514F;" d="M0,172.689c0,28.052,22.562,34.743,43.543,28.796c16.852-4.783,185.51-53.559,185.51-53.559V55.558
		c0,0-168.658-48.783-185.51-53.559C22.562-3.949,0,2.735,0,30.788V172.689z"/>
	<path style="fill:#E63C32;" d="M188.632,153.498c0,1.605,2.684,3.165,3.131,4.619c20.605-6.013,37.29-10.191,37.29-10.191V55.558
		c0,0-13.474-4.264-40.421-10.402V153.498z"/>
	<path style="fill:#EA514F;" d="M512,172.689c0,28.052-19.191,34.743-40.171,28.796c-16.849-4.783-182.145-53.559-182.145-53.559
		V55.558c0,0,165.296-48.783,182.145-53.559C492.809-3.949,512,2.735,512,30.788V172.689z"/>
	<g>
		<path style="fill:#E63C32;" d="M289.684,55.558v92.368c0,0,98.697,29.421,151.526,44.803L301.309,51.873
			C293.428,54.183,289.684,55.558,289.684,55.558z"/>
	</g>
	<path style="fill:#EA514F;" d="M296.421,149.32c0,7.566-0.888,15.586-8.44,15.586h-71.132c-7.566,0-14.743-8.02-14.743-15.586
		V53.577c0-7.572,7.177-9.934,14.743-9.934h71.132c7.553,0,8.44,2.362,8.44,9.934V149.32z"/>
</g>
</svg>